<?xml version="1.0" encoding="utf-8"?>
<!-- Generator: Adobe Illustrator 16.0.0, SVG Export Plug-In . SVG Version: 6.00 Build 0)  -->
<!DOCTYPE svg PUBLIC "-//W3C//DTD SVG 1.1//EN" "http://www.w3.org/Graphics/SVG/1.1/DTD/svg11.dtd">
<svg version="1.1" xmlns="http://www.w3.org/2000/svg" xmlns:xlink="http://www.w3.org/1999/xlink" x="0px" y="0px" width="250px"
	 height="250px" viewBox="0 0 250 250" enable-background="new 0 0 250 250" xml:space="preserve">
<g id="Layer_2">
</g>
<g id="Layer_1">
	<path fill="#166533" d="M125,0C56.068,0,0.19,55.88,0.19,124.81c0,68.932,55.878,124.812,124.81,124.812
		s124.81-55.88,124.81-124.812C249.81,55.88,193.932,0,125,0z M103.67,106.068c5.342-8.535,6.252-10.091,7.824-13.37
		c2.089-4.363,2.777-6.954,2.822-10.614c0.042-3.5-0.482-5.576-2.095-8.29c-1.144-1.927-3.717-4.829-4.761-5.369
		c-1.703-0.88-2.058-2.076-0.848-2.87c1.914-1.253,7.139-0.458,11.941,1.816c5.434,2.574,9.438,6.27,12.045,11.116
		c2.01,3.735,2.82,6.598,4.184,14.778c1.512,9.079,3.013,11.959,6.045,11.61c1.606-0.185,2.609-0.794,3.286-1.998
		c1.077-1.918,0.615-4.543-1.564-8.888c-1.781-3.549-1.671-4.621,0.418-4.068c1.082,0.286,4.594,3.154,7.023,5.736
		c6.082,6.463,9.109,12.335,10.564,20.494c0.765,4.28,0.827,11.377,0.135,15.085c-0.872,4.678-2.641,9.094-5.155,12.871
		c-2.804,4.211-8.652,9.54-12.905,11.756c-1.92,1.001-2.586,1.062-3.527,0.32c-1.172-0.92-0.925-1.562,1.664-4.31
		c3.888-4.131,5.874-7.067,7.025-10.391c1.778-5.129,0.893-12.281-2.082-16.837c-1.233-1.888-3.04-3.552-3.855-3.552
		c-0.445,0-0.373,0.589,0.455,3.624c0.291,1.062,0.528,2.362,0.528,2.887c0,2.776-3.918,4.788-7.37,3.785
		c-2.806-0.815-4.042-3.36-3.671-7.551c0.115-1.295,0.218-3.648,0.229-5.23c0.019-2.789-0.007-2.929-0.891-4.671
		c-1.721-3.394-5.699-6.888-7.844-6.888c-0.924,0-0.998,0.056-0.998,0.735c0,0.457,0.256,0.975,0.674,1.367
		c2.221,2.07,2.638,6.315,0.99,10.064c-1.018,2.316-2.166,3.628-6.085,6.956c-5.157,4.379-6.82,6.463-7.85,9.848
		c-0.478,1.564-0.526,2.203-0.394,5.071c0.226,4.817,1.207,8.009,3.502,11.387c1.761,2.594,3.825,4.239,6.625,5.286
		c1.348,0.504,1.496,0.635,1.496,1.312c0,0.786-0.598,1.303-1.479,1.279c-0.26-0.009-1.525-0.396-2.813-0.865
		c-8.671-3.153-15.884-9.3-19.576-16.679c-2.053-4.103-3.244-9.07-3.243-13.523C94.144,123.266,96.497,117.529,103.67,106.068z
		 M62.793,191.562c-1.076,0.3-1.148,0.3-2.298,0.025c-3.372-0.804-8.247-5.035-13.655-11.847
		c-10.978-13.825-16.939-29.333-18.693-48.634c-0.338-3.715-0.335-13.112,0.006-16.552c1.604-16.214,7.278-30.179,17.689-43.537
		c3.188-4.091,8.473-9.45,11.004-11.16c3.582-2.418,5.835-2.614,7.997-0.692c0.882,0.782,1.085,1.146,1.199,2.15
		c0.213,1.891-0.757,3.368-5.263,8.021c-6.295,6.503-9.201,10.124-12.418,15.478c-7.306,12.159-10.434,24.944-9.984,40.833
		c0.238,8.464,1.145,14.704,3.141,21.642c1.8,6.252,3.959,11.29,7.193,16.786c3.247,5.517,5.975,9.008,11.43,14.626
		c4.787,4.929,5.976,6.641,5.976,8.604C66.116,189.256,64.738,191.021,62.793,191.562z M176.578,180.931l-1.101,0.631l-46.683,0.044
		c-25.678,0.024-47.005-0.054-47.396-0.172c-2.853-0.864-4.507-3.717-3.819-6.585c0.425-1.774,2.206-3.599,3.938-4.035
		c1.746-0.44,92.028-0.44,93.771,0c1.787,0.45,3.541,2.279,3.932,4.1C179.732,177.297,178.66,179.738,176.578,180.931z
		 M210.467,169.297c-5.868,9.705-14.82,19.65-19.588,21.759c-1.246,0.55-3.034,0.819-4.04,0.606
		c-1.018-0.217-2.84-2.176-3.046-3.276c-0.331-1.773,0.725-3.352,5.642-8.444c2.418-2.506,5.396-5.799,6.613-7.319
		c8.92-11.123,13.876-23.498,15.198-37.951c0.408-4.457,0.196-15.938-0.373-20.242c-1.188-9.018-3.386-16.395-7.192-24.153
		c-3.642-7.423-7.409-12.688-13.772-19.245c-4.273-4.404-5.533-6.013-5.963-7.612c-0.42-1.566-0.119-2.731,1.058-4.067
		c1.612-1.832,3.456-1.996,6.338-0.562c3.491,1.735,8.014,6.267,13.265,13.288c10.563,14.126,16.011,29.667,17.321,49.407
		C223.039,138.257,218.97,155.234,210.467,169.297z"/>
</g>
</svg>
